<svg xmlns="http://www.w3.org/2000/svg" xmlns:xlink="http://www.w3.org/1999/xlink" viewBox="0 0 364.91 150"><defs><linearGradient id="linear-gradient" x1="138.35" y1="65.48" x2="142.41" y2="69.54" gradientTransform="matrix(1 0 0 -1 0 152)" gradientUnits="userSpaceOnUse"><stop offset="0" stop-color="#ff8b00"/><stop offset="1" stop-color="#ffc803"/></linearGradient><linearGradient id="linear-gradient-2" x1="101.15" y1="88.03" x2="119.41" y2="106.28" xlink:href="#linear-gradient"/><linearGradient id="linear-gradient-3" x1="135.02" y1="51.88" x2="143.61" y2="60.46" xlink:href="#linear-gradient"/><linearGradient id="linear-gradient-4" x1="22.96" y1="38.94" x2="52.71" y2="68.7" xlink:href="#linear-gradient"/><linearGradient id="linear-gradient-5" x1="121.24" y1="92.15" x2="135.46" y2="106.36" xlink:href="#linear-gradient"/><linearGradient id="linear-gradient-6" x1="84.93" y1="41.8" x2="97.55" y2="54.42" xlink:href="#linear-gradient"/><linearGradient id="linear-gradient-7" x1="91.23" y1="61.17" x2="97.36" y2="67.3" xlink:href="#linear-gradient"/><linearGradient id="linear-gradient-8" x1="25.94" y1="19.58" x2="140.79" y2="134.42" xlink:href="#linear-gradient"/><style>.cls-9{fill:#fff}.cls-10{fill:#252525}</style></defs><g id="Layer_2" data-name="Layer 2"><g id="Layer_1-2" data-name="Layer 1"><g id="favicon"><g id="joined-shapes"><path d="M135.39 83.56c4.52-.53 5.87.71 5.87.71a6.23 6.23 0 0 1 2.53 3.58c-1.09-8.8-6.36-9.51-8.4-4.29Z" fill="url(#linear-gradient)"/><path d="M112.11 62.8c-2 .35-6.91.87-9.45 1.13v1.61c4.35-.34 10.38-.75 15.51-.93.66-8.25-3.79-23.87-3.79-23.87a20.55 20.55 0 0 0-5.86 0c-3.8.44-5.53 4.56-5.53 4.56s-.93 1.6-2.18 3.85c.43 2.53 1 6.2 1.41 9.92.64 0 1.75 0 2-.34s.27-5 .59-5.75.33-1.57 3-1.52 5.37-.68 6 3.81 1.12 7.04-1.7 7.53Z" fill="url(#linear-gradient-2)"/><path d="M139.91 88.41c-1.83-.15-3.59 3-3.92 7.15s.89 7.54 2.73 7.69 3.59-3 3.92-7.15-.89-7.54-2.73-7.69Z" fill="url(#linear-gradient-3)"/><path d="M53.75 105.21c11.62-.5 12.6-2.35 13.8-5s-.86-2.44-3.13-2.39c-3 0-25.69-.7-49.38-2.2-2.74-.17-4.93-.35-6.7-.53l4.64 8c7.53.73 29.51 2.61 40.77 2.12Z" fill="url(#linear-gradient-4)"/><path d="M132.91 43.11c-4.5-3.8-12-2.32-12.74-2.56 0 0 5.28 17.87 5.18 23.41 8.86-.59 10.87-.28 12.94-.78 0-3.11-1.8-17.04-5.38-20.07Z" fill="url(#linear-gradient-5)"/><path d="M91.58 92.67c-2.91-.09-5.42 4.86-5.6 11.06s2 11.28 4.94 11.36 5.42-4.86 5.6-11.06-2.03-11.28-4.94-11.36Z" fill="url(#linear-gradient-6)"/><path d="M98.71 91.37c.19-8.91-7.4-13.75-12.85-5.91 7-.72 10.64 1.11 12.76 9q.06-1.56.09-3.09Z" fill="url(#linear-gradient-7)"/><path d="m163.87 64.47-31.15-53.94A21 21 0 0 0 114.49 0H52.2A21.07 21.07 0 0 0 34 10.53L2.82 64.47a21.1 21.1 0 0 0-1.77 17.11 6.71 6.71 0 0 1 1.05-.79c-.15 1.1 30.54 4.52 67.42 2.8 8-.37 8.85-1.19 10.76-6.74 1.35-3.9-.18-6.31-4.13-5.43-2 .45-12.48 2.9-18.78 4.58-5 1.34-14.76 1.18-14.76 1.18S12.27 76.82 9 75.89c-4.78-1.36-3.63-4.53-3.63-4.58.52-2.65 4.44-6 18.54-10.62 14.12 1.5 52.64.41 58.26.77 3.74.24 5.31-1.41 5.31-1.41s6.19-11.39 8-15.08 1-3.57-.76-3.68a349.69 349.69 0 0 0-54.25.71 63.31 63.31 0 0 1 5.1-3.87c6.22-4 10.5-5.53 18.95-5.9 0 0 58.22-3.45 70.08 5.61 4.71 3.36 7 12.58 9.41 27.46 2.15 13.48.8 21.38.19 24 1.63 7-.71 16.42-4.53 18.15a.56.56 0 0 1-.28.13 10.5 10.5 0 0 1-8.58-1.42 8 8 0 0 1-2.88-5l-28.37 4.93c-.66 7.57-3.85 13.89-8 15.21a16 16 0 0 1-12.83-1.21c-3.32-1.9-4.83-6.16-5.48-9.52q-7.89.57-15.82.36c-3.72 0-16.8 0-30.44-1.15-1.45 3.35-3.53 5.77-5.94 6.53l-.38.11 13.33 23A21.07 21.07 0 0 0 52.2 150h62.29a21 21 0 0 0 18.23-10.53l31.15-53.94a21.07 21.07 0 0 0 0-21.06Z" fill="url(#linear-gradient-8)"/></g><g id="stars"><path class="cls-9" d="M52.54 129.94a5.08 5.08 0 0 1-2.24-2.25l-.39-.75-.38.75a5.1 5.1 0 0 1-2.25 2.25l-.76.38.76.39a5.19 5.19 0 0 1 2.25 2.29l.38.76.39-.76a5.11 5.11 0 0 1 2.24-2.24l.76-.39ZM99.64 19.66a5.13 5.13 0 0 1-2.25-2.24l-.39-.76-.38.76a5.08 5.08 0 0 1-2.25 2.24l-.75.39.75.38a5.1 5.1 0 0 1 2.25 2.25l.38.76.39-.76a5.1 5.1 0 0 1 2.25-2.25l.75-.38ZM118.91 14.71a8.55 8.55 0 0 1-3.72-3.71l-.63-1.26-.64 1.26a8.57 8.57 0 0 1-3.72 3.72l-1.26.64 1.26.63a8.57 8.57 0 0 1 3.72 3.72l.64 1.26.63-1.26a8.55 8.55 0 0 1 3.72-3.71l1.26-.63Z"/></g></g><g id="text"><path class="cls-10" d="M199.37 24.48V37h16.83v8h-16.83v13.22h19v8.16h-29V16.32h29v8.16ZM241.06 58.43h16.47v7.95H231v-50h10ZM277.51 16.39v50h-10v-50ZM325 16.39v8.09h-13.32v41.9h-10v-41.9h-13.35v-8.09ZM345.91 24.48V37h16.83v8h-16.83v13.22h19v8.16h-29V16.32h29v8.16ZM192.65 95.71a23.46 23.46 0 0 1 8.81-9.09 24.21 24.21 0 0 1 12.46-3.26 25.32 25.32 0 0 1 14.36 4A22.5 22.5 0 0 1 237 98.54h-5.87a17.22 17.22 0 0 0-6.55-8A20.83 20.83 0 0 0 204 90.3a17.91 17.91 0 0 0-6.91 7.42 26.25 26.25 0 0 0 0 22.38 17.92 17.92 0 0 0 6.91 7.37 20.9 20.9 0 0 0 20.56-.25 17 17 0 0 0 6.55-7.84H237a22.24 22.24 0 0 1-8.73 11.1 25.63 25.63 0 0 1-14.33 3.94 24.21 24.21 0 0 1-12.46-3.26 23.52 23.52 0 0 1-8.81-9.06 28.67 28.67 0 0 1 0-26.39ZM276.09 122.1h-22.78l-4.37 11.9h-5.3l18.27-49.42h5.65l18.2 49.42h-5.3Zm-1.51-4.1-9.88-27.12-9.88 27.12ZM320.56 134l-12.39-20.91h-9.24V134h-5V83.93h15q8.4 0 12.71 4A13.68 13.68 0 0 1 326 98.47a14.17 14.17 0 0 1-3.12 9.27q-3.12 3.84-9.2 5l12.9 21.26Zm-21.63-25H309c3.92 0 6.86-1 8.85-2.87a10.13 10.13 0 0 0 3-7.66c0-3.3-1-5.84-2.87-7.63s-4.91-2.69-9-2.69H299ZM339.33 129.55h25.56V134h-31.44v-4l25.21-41.61h-24.78v-4.46h30.66v4Z"/></g></g></g></svg>